PathFileType	3	(X/Y/Z)	D:\Vicon Database\Healthy Subjects\S0040\Jan. 30, 2020\Force Plate Walk 5.trc
DataRate	CameraRate	NumFrames	NumMarkers	Units	OrigDataRate	OrigDataStartFrame	OrigNumFrames
100.0	100.0	5	53	mm	100.0	350	326	
Frame#	Time	right_foot_cluster2			right_foot_cluster3			sternum_cluster1			sternum_cluster2			sternum_cluster3			left_asis			right_asis			left_psis			right_psis			sacrum_cluster1			sacrum_cluster2			sacrum_cluster3			left_lat_femoral_epicondyle			left_anterior_thigh15			left_anterior_thigh25			left_anterior_thigh50			left_lateral_thigh25			left_lateral_thigh50			left_thigh_cluster1			left_thigh_cluster2			left_thigh_cluster3			left_fibular_head			left_tibial_tuberosity			left_anterior_shank30			left_lateral_malleolus			left_shank_cluster1			left_shank_cluster2			left_shank_cluster3			left_heel			left_metatarsal2			left_foot_cluster1			left_foot_cluster2			left_foot_cluster3			right_lat_femoral_epicondyle			right_anterior_thigh15			right_anterior_thigh25			right_anterior_thigh50			right_lateral_thigh25			right_lateral_thigh50			right_thigh_cluster1			right_thigh_cluster2			right_thigh_cluster3			right_fibular_head			right_tibial_tuberosity			right_lateral_distal_shank			right_anterior_shank30			right_lateral_malleolus			right_shank_cluster1			right_shank_cluster2			right_shank_cluster3			right_heel			right_metatarsal2			right_foot_cluster1			
		X1	Y1	Z1	X2	Y2	Z2	X3	Y3	Z3	X4	Y4	Z4	X5	Y5	Z5	X6	Y6	Z6	X7	Y7	Z7	X8	Y8	Z8	X9	Y9	Z9	X10	Y10	Z10	X11	Y11	Z11	X12	Y12	Z12	X13	Y13	Z13	X14	Y14	Z14	X15	Y15	Z15	X16	Y16	Z16	X17	Y17	Z17	X18	Y18	Z18	X19	Y19	Z19	X20	Y20	Z20	X21	Y21	Z21	X22	Y22	Z22	X23	Y23	Z23	X24	Y24	Z24	X25	Y25	Z25	X26	Y26	Z26	X27	Y27	Z27	X28	Y28	Z28	X29	Y29	Z29	X30	Y30	Z30	X31	Y31	Z31	X32	Y32	Z32	X33	Y33	Z33	X34	Y34	Z34	X35	Y35	Z35	X36	Y36	Z36	X37	Y37	Z37	X38	Y38	Z38	X39	Y39	Z39	X40	Y40	Z40	X41	Y41	Z41	X42	Y42	Z42	X43	Y43	Z43	X44	Y44	Z44	X45	Y45	Z45	X46	Y46	Z46	X47	Y47	Z47	X48	Y48	Z48	X49	Y49	Z49	X50	Y50	Z50	X51	Y51	Z51	X52	Y52	Z52	X53	Y53	Z53	
350	3.49	2253.8716	101.88831	-216.01076	2254.1475	106.50476	-253.48198	2082.7075	1450.7643	-156.40625	2071.342	1423.0259	-147.43015	2069.4839	1426.6702	-185.42194	2115.6084	1071.7249	-49.021938	2104.293	1073.9171	-296.72226	2277.7202	1087.8481	-99.243408	2273.1382	1093.9299	-216.68536	2282.9836	1148.5797	-163.86588	2288.7021	1123.5946	-176.75983	2293.9224	1117.611	-137.91533	2006.1643	570.77136	-22.423359	1939.3381	676.43536	-66.347084	1962.4215	763.06049	-55.090183	2026.2153	884.75903	-45.093578	2060.959	711.38092	0.90476042	2117.051	850.55927	26.604561	2100.3569	805.57495	32.404785	2091.8101	777.49359	29.443117	2061.1538	799.17828	35.569981	1988.8236	495.76553	-14.842579	1930.0887	491.79803	-66.16787	1936.1724	239.0313	-74.258583	1975.2527	116.78571	-45.362419	1924.5817	436.49826	-93.460457	1919.7981	409.09457	-84.229912	1932.1395	407.98691	-120.96537	2043.4603	73.961151	-88.699814	1827.1373	101.16176	-74.547607	1890.9639	142.2191	-68.449738	1865.9623	127.6898	-57.924351	1860.4027	136.11166	-94.870094	2263.8264	539.85376	-300.29492	2164.1365	607.58545	-241.25427	2123.7886	682.76886	-241.55412	2088.9434	811.29376	-258.24896	2220.2996	694.04999	-327.06342	2185.6929	836.29382	-358.91074	2204.5867	786.12061	-363.0683	2198.729	758.40729	-356.88779	2237.199	764.62317	-355.5228	2288.9346	475.0878	-301.67865	2237.5854	457.45087	-255.83017	2344.2056	209.75092	-282.39374	2297.5012	216.52557	-236.57715	2364.5054	107.23028	-266.0119	2258.3567	396.42844	-199.73015	2268.6135	370.08664	-192.40149	2245.2634	364.20969	-220.77136	2442.5654	74.760612	-233.21404	2222.5425	67.797546	-228.48653	2277.4851	116.57229	-224.24661
351	3.5	2253.291	101.67227	-215.75381	2253.407	106.494	-253.29233	2069.3367	1448.3831	-156.0609	2057.4736	1420.5684	-146.88618	2055.2625	1424.2579	-184.76222	2102.251	1069.7197	-48.581032	2090.6248	1071.5929	-296.37119	2264.4668	1085.6774	-98.868645	2259.7805	1091.759	-216.34525	2269.6003	1146.2975	-163.5403	2275.5623	1121.5502	-176.31139	2280.7083	1115.3322	-137.59772	1991.5872	568.60852	-21.42988	1927.8306	673.82037	-66.526237	1950.3234	760.00037	-55.225239	2013.04	881.78894	-44.868374	2048.824	708.91199	1.5362955	2103.9771	848.24524	27.061003	2087.6624	803.51959	32.699783	2079.1621	774.92688	29.802582	2048.4385	796.50977	35.601292	1970.8541	494.10287	-14.013631	1913.3754	492.50995	-66.517937	1905.0366	240.39012	-73.882896	1936.6361	116.06724	-43.653904	1905.9802	437.98056	-93.969803	1898.2407	411.32242	-84.508873	1912.051	408.92941	-120.98158	2003.3087	69.439705	-85.894028	1788.1605	108.49984	-74.875214	1854.1373	145.90723	-68.066917	1828.579	132.47153	-57.989529	1823.9158	141.31577	-95.125427	2258.6333	539.8902	-299.63974	2157.855	605.85602	-240.08394	2115.9099	680.48694	-240.39104	2078.4512	808.46106	-257.52209	2211.7976	693.4859	-326.7608	2174.7664	834.79797	-358.43225	2194.6536	784.77118	-362.52515	2189.3896	757.09119	-355.89325	2227.748	764.4057	-354.78073	2285.012	475.75607	-300.77933	2233.7241	457.3472	-255.21132	2342.7886	210.77284	-281.8241	2295.699	216.97949	-236.34047	2363.6584	108.38998	-265.30725	2254.8105	396.68573	-199.45224	2265.1021	370.19455	-192.08875	2241.9194	364.52795	-220.467	2442.1785	76.625603	-232.67249	2222.1697	67.204071	-228.37991	2276.9692	116.77145	-223.73021
352	3.51	2252.4719	101.57841	-215.61841	2252.5498	106.46899	-253.2354	2054.7527	1445.84	-155.29424	2043.5123	1417.9115	-146.27773	2040.8978	1421.6912	-184.07179	2088.7644	1067.6154	-48.041641	2077.5715	1068.9146	-296.12949	2251.1335	1083.363	-98.389847	2246.3552	1089.3945	-215.88924	2256.2139	1143.8577	-163.01303	2262.2227	1119.1854	-175.9146	2267.3174	1112.8824	-137.20119	1977.4791	566.20422	-20.774057	1916.2616	670.54736	-66.48188	1938.2208	756.40198	-55.230911	1999.7102	878.44012	-44.600567	2036.8688	706.19672	2.6755369	2090.8455	845.94812	27.554104	2075.3047	801.12738	33.066902	2066.9976	772.45319	30.443161	2036.1248	793.9317	36.129875	1953.0715	492.50671	-13.255621	1896.9064	493.0163	-66.946159	1875.6527	242.03687	-73.283989	1899.7559	116.24232	-41.991165	1886.9263	439.38	-94.074493	1878.0785	413.08371	-84.807457	1892.241	409.9278	-120.92098	1964.5848	66.149078	-82.965324	1751.4246	116.40519	-75.410088	1819.2937	150.23305	-67.620773	1792.9463	138.14175	-57.994183	1789.1354	147.05862	-94.956215	2253.1467	540.13129	-299.07443	2150.9392	604.2326	-238.83003	2107.5317	678.29364	-239.19766	2067.6904	805.43561	-256.79559	2203.3315	692.68225	-326.05011	2163.6191	833.13867	-358.10693	2184.436	783.75732	-361.74963	2179.5515	756.052	-355.61887	2217.7361	763.49274	-353.91949	2280.3643	476.2699	-299.83566	2228.8989	457.1424	-254.72078	2340.9939	211.9332	-281.20871	2293.822	217.64542	-235.55798	2362.7354	109.63177	-264.96033	2250.0874	396.74219	-198.7708	2261.3279	370.3324	-191.15649	2238.5715	364.33871	-219.7636	2441.4937	77.937965	-232.12077	2222.0579	66.383812	-228.36749	2276.3357	116.513	-223.89754
353	3.52	2251.6152	101.44054	-215.40204	2251.6572	106.31062	-252.78882	2040.4718	1443.2791	-154.45592	2029.4454	1415.1483	-145.62575	2027.7188	1418.7317	-183.81664	2075.1726	1065.3568	-47.469353	2064.1118	1066.1652	-295.69016	2237.72	1080.9703	-97.749763	2232.7146	1086.9034	-215.30627	2242.7029	1141.3444	-162.46979	2248.6194	1116.5306	-175.33876	2253.689	1110.2987	-136.69289	1963.693	563.77631	-20.000591	1904.5941	666.92383	-66.422768	1926.1898	752.51227	-55.075741	1986.1984	874.90851	-43.929726	2025.0857	702.99945	3.8307884	2077.9771	843.28363	28.200443	2062.9609	798.56927	33.8339	2054.8188	769.80463	31.584856	2023.4833	791.25104	36.884628	1935.6121	491.09412	-12.51588	1880.3284	493.41992	-67.362579	1847.7605	244.03223	-72.440941	1864.8903	117.19013	-40.302242	1868.4691	440.60507	-94.136086	1857.7216	414.9693	-85.055016	1873.0229	410.55276	-120.91316	1927.83	63.719608	-79.988495	1717.4709	124.62485	-75.93132	1786.7675	155.0428	-67.146049	1759.5924	144.41464	-57.83152	1756.8773	153.26675	-95.007248	2246.7664	540.14166	-298.02377	2143.3306	602.59888	-237.66476	2097.9536	676.23804	-238.1129	2056.4429	802.57361	-256.05344	2194.1213	691.79559	-325.39981	2152.1641	831.21527	-357.65021	2173.7593	782.47107	-360.97083	2169.3665	754.63092	-354.68655	2207.4922	762.70081	-353.21201	2274.7595	476.62167	-299.04236	2223.9092	456.69449	-253.45195	2338.7029	213.03169	-280.66943	2291.5081	218.01453	-235.1613	2361.658	110.49699	-264.43921	2246.1047	396.09653	-198.27913	2257.0408	370.42923	-190.43671	2234.1809	363.98361	-219.04555	2440.6357	79.593498	-231.77458	2221.4971	66.071922	-228.399	2275.1611	116.91051	-223.69316
354	3.53	2250.6895	101.44222	-215.17966	2250.876	106.36839	-252.5753	2026.2614	1440.5734	-153.77525	2015.3296	1412.3514	-144.89645	2013.5093	1415.8851	-183.05493	2061.5293	1062.9688	-46.714085	2050.291	1063.4828	-295.08325	2224.0327	1078.3147	-97.111198	2218.7563	1084.1835	-214.55331	2229.1067	1138.7893	-161.7785	2234.9702	1113.9696	-174.69447	2240.1108	1107.7596	-136.0164	1949.8184	561.28833	-19.269264	1892.5999	663.17987	-66.411804	1914.0631	748.48358	-54.90015	1972.4396	871.48413	-43.111172	2013.0048	699.77637	4.8193097	2064.877	840.58289	29.086103	2050.2393	795.73962	35.093433	2041.8481	766.5752	32.756634	2011.1812	788.23712	37.956696	1918.562	489.80673	-11.732018	1864.2493	493.63162	-67.646072	1821.5542	246.19006	-71.424141	1832.4788	118.84081	-38.563831	1850.7753	441.38583	-94.118347	1838.8035	416.22232	-85.00164	1854.2163	411.32278	-120.56534	1892.524	61.599651	-77.209656	1686.1996	133.03949	-76.390015	1756.4602	160.11151	-66.788696	1728.6858	150.82942	-57.732525	1727.1431	159.38571	-95.051239	2239.3083	539.77466	-297.15186	2134.8513	600.84705	-236.67458	2088.4343	673.8714	-237.10379	2044.9844	799.73157	-255.42545	2184.5591	690.61078	-325.12848	2140.5198	829.47791	-356.83383	2162.5537	781.03491	-360.43777	2158.6497	752.98907	-354.25742	2196.5967	761.67401	-352.47095	2268.4253	476.8949	-298.22458	2217.8572	456.04776	-252.57057	2336.1082	214.11346	-280.14264	2288.9172	218.4101	-234.64011	2360.6086	111.89478	-264.00671	2239.4395	396.28424	-197.90378	2252.1421	370.12454	-189.78944	2229.3318	363.65424	-218.46815	2439.9041	81.470039	-231.39665	2220.8994	66.053505	-227.93031	2274.2695	117.01737	-223.4212
